<svg width="199" height="129" viewBox="0 0 199 129" fill="none" xmlns="http://www.w3.org/2000/svg">
<path d="M67.2366 129H9.07524C9.07524 129 7.8963 111.74 14.8717 111.544C21.8472 111.348 21.0612 119.193 29.8051 108.406C38.5489 97.6184 49.1594 98.2068 50.5349 104.581C51.9103 110.956 47.8822 116.055 55.2507 114.486C62.6191 112.917 73.2296 117.036 67.2366 129Z" fill="#57B894"/>
<path d="M37.1962 128L37 127.992C37.4575 116.669 39.8406 109.395 41.7591 105.286C43.8421 100.824 45.8495 99.0178 45.8695 99L46 99.146C45.9802 99.1636 43.9963 100.952 41.93 105.383C40.022 109.475 37.6521 116.72 37.1962 128Z" fill="#F2F2F2"/>
<path d="M58.1933 129L58 128.944C60.3278 121.04 65.8095 116.05 65.8647 116L66 116.147C65.9453 116.197 60.5046 121.152 58.1933 129Z" fill="#F2F2F2"/>
<path d="M17.793 129L17.6121 128.973C18.3282 123.451 17.0346 119.167 15.8232 116.545C14.5116 113.707 13.015 112.156 13 112.141L13.1263 112C13.1415 112.016 14.6613 113.59 15.9869 116.459C17.2096 119.105 18.5155 123.429 17.793 129Z" fill="#F2F2F2"/>
<path fill-rule="evenodd" clip-rule="evenodd" d="M2.11805 129H74.7131L74.786 128.856C78.4015 121.739 76.9224 117.398 75.0448 115.011C71.5549 110.572 64.602 109.677 59.6189 110.723C57.1691 111.238 55.6806 111.18 54.9349 110.54C54.0416 109.774 54.167 108.083 54.3258 105.942L54.3258 105.942L54.3259 105.942C54.4743 103.941 54.6589 101.451 54.079 98.8006C53.4665 96.0018 51.3739 93.9879 48.3377 93.2753C43.6384 92.1727 35.4639 94.1556 27.8877 103.373C20.8941 111.881 18.9706 110.758 16.059 109.057L16.0589 109.057L16.0454 109.05C14.503 108.149 12.59 107.032 9.55118 107.117C8.11332 107.157 6.85426 107.752 5.80904 108.885C1.1335 113.952 2.05957 128.156 2.1013 128.758L2.11805 129ZM74.3864 128.481H2.61348C2.51055 126.56 1.99748 113.788 6.19963 109.234C7.14462 108.21 8.27719 107.672 9.56614 107.636C12.4504 107.556 14.226 108.591 15.7898 109.504C18.8245 111.276 21.0176 112.556 28.2978 103.699C35.7199 94.6702 43.666 92.7122 48.2153 93.7806C51.046 94.4448 52.9953 96.3144 53.5633 98.9099C54.1272 101.487 53.9456 103.936 53.7995 105.904L53.7995 105.905C53.63 108.19 53.4961 109.995 54.5883 110.932C55.4813 111.698 57.0673 111.79 59.729 111.231C64.7094 110.185 71.4261 111.257 74.6276 115.329C77.1648 118.555 77.0806 123.1 74.3864 128.481Z" fill="#CFCCE0"/>
<path d="M146.997 92L126 88.3042C129.753 80.4242 131.468 72.6385 130.003 65L151 68.6958C147.734 75.9944 146.357 84.014 146.997 92Z" fill="#F2F2F2"/>
<path d="M134.095 70.1166L145.045 72.0118L144.957 72.5187L134.006 70.6236L134.095 70.1166Z" fill="#3F3D56"/>
<path d="M133.741 72.1445L144.691 74.0396L144.603 74.5466L133.652 72.6514L133.741 72.1445Z" fill="#3F3D56"/>
<path d="M133.387 74.173L144.337 76.0682L144.248 76.5752L133.298 74.68L133.387 74.173Z" fill="#3F3D56"/>
<path d="M133.032 76.2L143.983 78.0952L143.894 78.6021L132.944 76.707L133.032 76.2Z" fill="#3F3D56"/>
<path d="M132.678 78.2278L143.628 80.123L143.54 80.63L132.589 78.7348L132.678 78.2278Z" fill="#3F3D56"/>
<path d="M132.324 80.2557L143.274 82.1508L143.186 82.6578L132.235 80.7626L132.324 80.2557Z" fill="#3F3D56"/>
<path d="M131.97 82.2835L142.92 84.1787L142.831 84.6856L131.881 82.7904L131.97 82.2835Z" fill="#3F3D56"/>
<path d="M131.615 84.3113L142.566 86.2065L142.477 86.7135L131.527 84.8183L131.615 84.3113Z" fill="#3F3D56"/>
<path d="M155.997 99L135 95.3042C138.753 87.4242 140.468 79.6385 139.003 72L160 75.6958C156.734 82.9944 155.357 91.014 155.997 99Z" fill="#F2F2F2"/>
<path d="M143.509 77.5254L154.459 79.4206L154.37 79.9276L143.42 78.0324L143.509 77.5254Z" fill="#3F3D56"/>
<path d="M143.154 79.5531L154.105 81.4483L154.016 81.9553L143.066 80.0601L143.154 79.5531Z" fill="#3F3D56"/>
<path d="M142.8 81.5818L153.75 83.477L153.662 83.984L142.712 82.0888L142.8 81.5818Z" fill="#3F3D56"/>
<path d="M142.446 83.6088L153.396 85.504L153.308 86.0109L142.357 84.1158L142.446 83.6088Z" fill="#3F3D56"/>
<path d="M142.092 85.6366L153.042 87.5318L152.953 88.0388L142.003 86.1436L142.092 85.6366Z" fill="#3F3D56"/>
<path d="M141.737 87.6645L152.688 89.5596L152.599 90.0666L141.649 88.1714L141.737 87.6645Z" fill="#3F3D56"/>
<path d="M141.383 89.6923L152.333 91.5875L152.245 92.0944L141.295 90.1993L141.383 89.6923Z" fill="#3F3D56"/>
<path d="M141.029 91.72L151.979 93.6152L151.891 94.1221L140.94 92.227L141.029 91.72Z" fill="#3F3D56"/>
<path d="M160.377 128H126.623L125 82H162L160.377 128Z" fill="#3F3D56"/>
<g opacity="0.2">
<rect x="130.181" y="88.0686" width="2.88617" height="35.8006" fill="white"/>
<rect x="141.546" y="88.0686" width="2.88617" height="35.8006" fill="white"/>
<rect x="152.91" y="88.0686" width="2.88617" height="35.8006" fill="white"/>
</g>
<path d="M135.972 66.1421L139.803 60.1106L186.462 89.4717L182.631 95.5032L135.972 66.1421Z" fill="#3F3D56"/>
<path d="M168.04 67.2676C165.235 65.5589 161.653 65.5791 158.869 67.3194C156.085 69.0597 154.609 72.2013 155.09 75.3628L157.342 76.7335C156.18 74.1356 156.911 71.1118 159.146 69.2748C161.38 67.4378 164.597 67.2159 167.081 68.7274C169.565 70.2389 170.737 73.1315 169.971 75.8624C169.206 78.5933 166.681 80.5258 163.745 80.6293L165.997 82C169.17 81.0622 171.486 78.4314 171.925 75.2643C172.364 72.0971 170.847 68.9738 168.04 67.2676L168.04 67.2676Z" fill="#3F3D56"/>
<rect y="127.782" width="199" height="0.435811" fill="#3F3D56"/>
<path d="M104.785 54C104.785 54 113.811 60.6795 110.108 61.8312C106.405 62.9828 101.777 57.9156 102.008 56.5336C102.24 55.1516 104.785 54 104.785 54Z" fill="#FFB8B8"/>
<path d="M97.6279 46L106 54.2222L102.651 58L97 53.5556L97.6279 46Z" fill="#575A89"/>
<path d="M117.195 79L99 67.5522C105.574 61.8668 110.205 55.4804 111.805 48L130 59.4478C124.108 64.795 119.702 71.5234 117.195 79Z" fill="#E6E6E6"/>
<path d="M113.933 54.3095L123.287 60.2859L123.008 60.7189L113.654 54.7425L113.933 54.3095Z" fill="#B1B1B1"/>
<path d="M112.816 56.0416L122.17 62.0179L121.89 62.4509L112.537 56.4746L112.816 56.0416Z" fill="#B1B1B1"/>
<path d="M111.699 57.7736L121.053 63.75L120.773 64.183L111.42 58.2066L111.699 57.7736Z" fill="#B1B1B1"/>
<path d="M110.582 59.5057L119.935 65.482L119.656 65.915L110.303 59.9387L110.582 59.5057Z" fill="#B1B1B1"/>
<path d="M109.465 61.2377L118.819 67.2141L118.539 67.6471L109.186 61.6708L109.465 61.2377Z" fill="#B1B1B1"/>
<path d="M108.348 62.9698L117.701 68.9461L117.422 69.3792L108.069 63.4028L108.348 62.9698Z" fill="#B1B1B1"/>
<path d="M107.231 64.7018L116.584 70.6782L116.305 71.1112L106.952 65.1349L107.231 64.7018Z" fill="#B1B1B1"/>
<path d="M106.114 66.434L115.467 72.4104L115.188 72.8434L105.835 66.867L106.114 66.434Z" fill="#B1B1B1"/>
<path d="M66.2173 107L63 113.828L72 116L71.7492 109.418L66.2173 107Z" fill="#FFB8B8"/>
<path d="M100 116.125L101.087 124L110 120.625L106.087 115L100 116.125Z" fill="#FFB8B8"/>
<path d="M79.8022 45C79.8022 45 78.4359 53.7063 78.8077 57.8468C79.1795 61.9874 77.7136 79.4569 77.7136 79.4569C77.7136 79.4569 71.1569 86.5549 69.6686 94.6612C68.6903 99.7687 67.1238 104.747 65 109.497L72.7256 112L88.0354 83.1537C88.0354 83.1537 99.0148 59.2393 97.9238 56.9611C96.8327 54.6829 95.122 45.5038 95.122 45.5038L79.8022 45Z" fill="#2C274D"/>
<path d="M65.4914 112.6C65.4914 112.6 65.482 108.757 64.0896 110.416C62.6973 112.074 58.1516 115.278 60.8285 117.519C63.5054 119.76 79.1385 131.904 79.9798 128.354C80.4469 126.384 72.65 113.081 72.65 113.081C72.65 113.081 70.0465 113.24 69.8659 113.891C69.6854 114.542 65.4914 112.6 65.4914 112.6Z" fill="#2F2E41"/>
<path d="M92.7115 9L87 15.8305L92.7115 22L98 13.6271L92.7115 9Z" fill="#FFB8B8"/>
<path d="M103 8.99769C103.001 12.2002 100.487 14.8393 97.2882 14.993C94.0892 15.1467 91.3335 12.7609 91.0278 9.57296C90.7221 6.38503 92.9742 3.51905 96.1441 3.06207C99.3139 2.60509 102.284 4.71825 102.891 7.8627C102.963 8.23671 103 8.61676 103 8.99769Z" fill="#FFB8B8"/>
<path d="M92.9402 4.71628C95.0099 3.72804 97.449 3.85423 99.6321 4.53812C100.871 4.92607 102.093 5.51091 102.96 6.49906C103.826 7.4872 104.272 8.94284 103.822 10.1898L102.017 8.78732L101.851 10.0235C100.66 8.11391 98.3969 7.28426 96.2981 6.58063C95.6417 6.36056 94.7704 6.21031 94.3919 6.80361C94.2324 7.05367 94.2143 7.38001 94.0446 7.62289C93.7266 8.07807 93.0619 8.03798 92.575 8.29046C92.1192 8.52687 91.8431 9.00957 91.5973 9.46943C91.3515 9.92929 91.4605 10.5733 91.0153 10.8302C89.2298 11.8606 90.2823 7.89265 90.5735 7.19927C91.1485 5.82992 91.6276 5.343 92.9402 4.71628Z" fill="#2F2E41"/>
<path d="M76 57.0186C76 57.0186 79.7778 65.0372 82.4444 68.2879C85.1111 71.5387 93.7778 86.9257 93.7778 86.9257C93.7778 86.9257 92.2222 96.4613 95.5556 104.046C97.6212 108.848 99.1125 113.866 100 119L108 116.833L104.667 84.3251C104.667 84.3251 100.444 58.3189 98.2222 57.0186C96 55.7183 89.3333 49 89.3333 49L76 57.0186Z" fill="#2C274D"/>
<path d="M94.0138 21.2721C94.0138 21.2721 90.2474 11.5616 85.1516 14.5826C80.0558 17.6037 76.0678 44.5771 76.0678 44.5771C76.0678 44.5771 71.4152 56.877 76.0678 58.1717C80.7205 59.4664 84.4869 61.1927 85.1516 58.8191C85.8163 56.4454 85.3732 52.3454 86.4809 54.5033C87.5887 56.6612 87.1456 59.2506 89.3612 59.2506C91.5767 59.2506 100.217 58.1717 99.9958 56.6612C99.7743 55.1507 94.0138 21.2721 94.0138 21.2721Z" fill="#FE1E75"/>
<path d="M75.9054 60.0855C75.9054 60.0855 73.3125 69 76.9026 69C80.4927 69 79.9739 60 79.9739 60L75.9054 60.0855Z" fill="#FFB8B8"/>
<path d="M101.127 121.495C101.127 121.495 98.9587 118.258 98.7419 120.416C98.5251 122.575 96.574 127.755 100.043 128.186C103.511 128.618 123.239 130.345 121.939 126.891C121.216 124.974 107.305 118 107.305 118C107.305 118 105.246 119.553 105.462 120.2C105.679 120.848 101.127 121.495 101.127 121.495Z" fill="#2F2E41"/>
<path d="M107.109 10.7738C107.109 10.7738 106.049 11.6687 104.673 9.89869C104.312 9.41708 104.004 8.89977 103.753 8.35518C102.646 7.27381 101.161 6.64726 99.6006 6.60279C99.4954 6.5984 99.388 6.5962 99.2784 6.59619C96.3698 6.59619 95.6985 4.61734 95.6985 4.61734L91 6.15645C91 6.15645 91.6712 0 98.1597 0C104.648 0 104.872 5.27696 104.872 5.27696C104.872 5.27696 110.018 7.25581 107.109 10.7738Z" fill="#575A89"/>
<path opacity="0.2" d="M103.873 10C103.527 9.49829 103.231 8.95939 102.99 8.39208C101.926 7.26558 100.499 6.61288 99 6.56656C100.571 6.04204 103.304 5.43277 104.495 7.01779C105.591 8.47684 104.68 9.4709 103.873 10Z" fill="black"/>
<path d="M85.9623 16.0947C85.9623 16.0947 80.1948 14.9995 78.6995 20.2567C77.2042 25.5139 74 41.0664 74 41.0664L75.9225 57.0571L75.7089 61H81.9037V56.8381C81.9037 56.4 82.7581 39.314 82.7581 39.314L89.8073 22.8853C89.8073 22.8853 91.3026 17.6281 85.9623 16.0947Z" fill="#FE1E75"/>
<path opacity="0.2" d="M90 26L82.8743 39.9762L82 60L84.3858 39.7612L90 26Z" fill="black"/>
<path opacity="0.2" d="M98 47L100 55L99 47.7219L98 47Z" fill="black"/>
<path opacity="0.2" d="M80 67L89 80.0714L88.0581 82L80 67Z" fill="black"/>
</svg>
