<svg xmlns="http://www.w3.org/2000/svg" width="46" height="30" viewBox="0 0 46 30" id="svg2"><rect id="rect6" rx="4" height="29" width="45" y=".5" x=".5" fill="#fff" fill-rule="evenodd" stroke="#d3d3d4"/><path id="XMLID_34_" d="M10.76 9.731c-.444.526-1.155.94-1.865.88-.089-.71.26-1.464.666-1.93.444-.54 1.22-.925 1.85-.955.073.74-.215 1.465-.652 2.005m.644 1.021c-1.028-.059-1.909.585-2.397.585-.496 0-1.243-.555-2.056-.54-1.058.014-2.042.614-2.582 1.568-1.11 1.909-.289 4.735.784 6.288.525.77 1.154 1.613 1.982 1.583.785-.03 1.095-.51 2.042-.51.955 0 1.228.51 2.057.496.858-.015 1.398-.77 1.923-1.54.6-.872.844-1.723.859-1.767-.015-.015-1.658-.644-1.672-2.538-.015-1.583 1.294-2.338 1.353-2.382-.74-1.095-1.893-1.213-2.293-1.243m5.94-2.145V20.14h1.79v-3.943h2.48c2.263 0 3.853-1.553 3.853-3.802 0-2.25-1.56-3.788-3.795-3.788h-4.327zm1.79 1.509h2.065c1.553 0 2.441.829 2.441 2.286s-.888 2.293-2.448 2.293h-2.057v-4.579zm9.603 10.113c1.125 0 2.168-.57 2.641-1.472h.037v1.383h1.658V14.4c0-1.665-1.332-2.738-3.381-2.738-1.902 0-3.307 1.088-3.359 2.582h1.613c.133-.71.791-1.176 1.694-1.176 1.095 0 1.709.51 1.709 1.45v.636l-2.234.133c-2.08.126-3.204.977-3.204 2.456 0 1.495 1.162 2.486 2.826 2.486zm.481-1.369c-.954 0-1.56-.458-1.56-1.161 0-.725.584-1.147 1.7-1.213l1.99-.126v.65c0 1.081-.916 1.85-2.13 1.85zm6.067 4.417c1.745 0 2.567-.666 3.284-2.686l3.144-8.818h-1.82l-2.108 6.814h-.037l-2.108-6.814h-1.872L36.8 20.17l-.163.51c-.273.866-.717 1.199-1.509 1.199-.14 0-.414-.015-.525-.03v1.384c.103.03.547.044.68.044z"/></svg>