<svg width="46" height="30" viewBox="0 0 46 30" xmlns="http://www.w3.org/2000/svg"><g fill="none" fill-rule="evenodd"><rect stroke="#D3D3D4" fill="#FFF" x=".5" y=".5" width="45" height="29" rx="4"/><path d="M36.163 7.818H25.339l-4.673 5.261-1.1 1.24H8.885l2.68-3.104h-4.92c-.9 0-1.636.754-1.636 1.676v3.537c0 .922.736 1.676 1.635 1.676h18.841c.9 0 2.127-.56 2.73-1.245l7.948-9.04" fill="#004C81"/><path d="M38.337 4.037c.9 0 1.635.755 1.635 1.677V9.25c0 .922-.735 1.676-1.635 1.676h-4.905l1.094-1.246 1.637-1.863H25.339l-5.773 6.505H8.819l7.999-9.044c.604-.683 1.834-1.242 2.733-1.242h18.786" fill="#FFDA1A"/><path d="M8.694 24.117c0-.231-.055-.431-.164-.6a1.076 1.076 0 0 0-.43-.386.955.955 0 0 0 .414-.393c.097-.173.146-.369.146-.586v-.12c0-.267-.05-.489-.153-.667a1.149 1.149 0 0 0-.43-.426 2.045 2.045 0 0 0-.663-.23 4.846 4.846 0 0 0-.86-.07 14.82 14.82 0 0 0-.97.047 4.524 4.524 0 0 0-.222.026c-.128.023-.22.063-.273.12-.053.058-.08.163-.08.314v4.05c0 .151.028.256.084.313.055.058.15.098.283.12.066.013.146.025.24.034a15.741 15.741 0 0 0 .64.04c.115.004.228.006.339.006.289 0 .56-.022.816-.067.255-.044.477-.123.666-.236.19-.113.339-.267.45-.46.11-.193.167-.436.167-.73v-.1zM7.56 22.205a.617.617 0 0 1-.033.203.4.4 0 0 1-.11.167.57.57 0 0 1-.207.113 1.059 1.059 0 0 1-.33.043h-.746V21.58l.104-.004c.046-.002.095-.003.146-.003h.257c.342 0 .58.043.716.13.135.086.203.22.203.403v.1zm.027 1.985c0 .187-.066.331-.197.433-.13.102-.368.153-.71.153h-.11c-.05 0-.104 0-.16-.003a4.033 4.033 0 0 0-.16-.003h-.116v-1.246h.746c.267 0 .451.059.553.176a.615.615 0 0 1 .154.417v.073zm4.756-1.052c0-.245-.036-.452-.11-.623a1.081 1.081 0 0 0-.31-.42 1.28 1.28 0 0 0-.49-.24 2.543 2.543 0 0 0-.649-.077c-.222 0-.438.016-.65.047a5.473 5.473 0 0 0-.502.093c-.085.023-.127.071-.127.147v.54c0 .044.011.075.034.093.022.018.05.026.086.026h.033l.2-.016c.08-.007.17-.012.27-.017a14.714 14.714 0 0 1 .636-.013c.156 0 .278.029.367.086.089.058.133.183.133.374v.24h-.36c-.573 0-.99.09-1.249.27-.26.179-.39.464-.39.855v.06c0 .218.033.4.097.546.064.147.15.265.256.354a.964.964 0 0 0 .364.19c.135.037.276.056.423.056.2 0 .372-.027.516-.08.144-.053.28-.126.41-.22v.107c0 .035.013.067.04.093.026.027.057.04.093.04h.746a.128.128 0 0 0 .093-.04.127.127 0 0 0 .04-.093v-2.378zm-1.059 1.612c-.08.04-.166.074-.256.103a.949.949 0 0 1-.29.043.65.65 0 0 1-.317-.06c-.069-.04-.103-.13-.103-.273v-.06c0-.08.009-.15.027-.213a.319.319 0 0 1 .093-.153.43.43 0 0 1 .18-.09c.075-.02.17-.03.286-.03h.38v.733zm5.136.76v-2.22c0-.208-.016-.405-.05-.589a1.317 1.317 0 0 0-.18-.48.923.923 0 0 0-.36-.323 1.27 1.27 0 0 0-.589-.12c-.213 0-.402.026-.566.078a1.877 1.877 0 0 0-.52.272v-.162a.13.13 0 0 0-.04-.094.128.128 0 0 0-.093-.04h-.746a.127.127 0 0 0-.093.04.128.128 0 0 0-.04.093v3.544c0 .036.014.068.043.097a.133.133 0 0 0 .097.043h.806a.123.123 0 0 0 .093-.043.138.138 0 0 0 .04-.096v-2.62a3 3 0 0 1 .326-.152.819.819 0 0 1 .3-.06.86.86 0 0 1 .25.03c.064.02.114.054.15.103.035.049.06.113.073.192.014.08.02.178.02.293v2.214c0 .035.014.067.04.096a.123.123 0 0 0 .094.043h.806a.134.134 0 0 0 .096-.043.133.133 0 0 0 .043-.097zm3.278-.054v-.593a.102.102 0 0 0-.036-.083.137.137 0 0 0-.09-.03h-.014a6.157 6.157 0 0 1-.813.047.613.613 0 0 1-.213-.037.397.397 0 0 1-.173-.127.67.67 0 0 1-.116-.24 1.35 1.35 0 0 1-.044-.37v-.559c0-.147.015-.27.044-.37a.67.67 0 0 1 .116-.24.4.4 0 0 1 .173-.126.616.616 0 0 1 .214-.037 6.144 6.144 0 0 1 .812.047h.014c.035 0 .065-.01.09-.03a.102.102 0 0 0 .036-.083v-.593c0-.05-.01-.084-.033-.104a.266.266 0 0 0-.107-.05 3.602 3.602 0 0 0-.886-.1c-.47 0-.847.145-1.129.433-.282.29-.423.707-.423 1.253v.56c0 .546.141.963.423 1.252.282.289.658.433 1.13.433a3.6 3.6 0 0 0 .885-.1.264.264 0 0 0 .107-.05c.022-.02.033-.054.033-.103zm3.698-1.945a2.2 2.2 0 0 0-.11-.72 1.486 1.486 0 0 0-.32-.543 1.428 1.428 0 0 0-.521-.346 1.936 1.936 0 0 0-.718-.124c-.271 0-.51.042-.718.124a1.46 1.46 0 0 0-.524.346c-.142.149-.25.33-.323.543-.074.213-.11.453-.11.72v.466c0 .266.036.506.11.72.073.213.18.394.323.542.143.15.317.265.524.347.207.082.447.123.718.123.271 0 .51-.041.718-.123.206-.082.38-.198.52-.347.14-.148.247-.33.32-.543a2.2 2.2 0 0 0 .11-.719v-.466zm-1.08.466c0 .546-.196.82-.59.82a.517.517 0 0 1-.443-.207c-.102-.138-.152-.342-.152-.613v-.466c0-.271.05-.474.152-.61.102-.135.25-.203.444-.203.393 0 .59.27.59.813v.466zm5.044 1.532v-2.218c0-.209-.017-.406-.05-.59a1.317 1.317 0 0 0-.18-.48.923.923 0 0 0-.36-.323 1.27 1.27 0 0 0-.59-.12c-.213 0-.402.026-.566.078a1.877 1.877 0 0 0-.52.272v-.162a.13.13 0 0 0-.04-.094.127.127 0 0 0-.093-.04h-.746a.128.128 0 0 0-.093.04.128.128 0 0 0-.04.093v3.544c0 .036.014.068.043.097a.134.134 0 0 0 .097.043h.806a.124.124 0 0 0 .093-.043.139.139 0 0 0 .04-.096v-2.62c.116-.062.224-.112.327-.152a.82.82 0 0 1 .3-.06c.102 0 .185.01.25.03.064.02.114.054.15.103a.45.45 0 0 1 .072.192c.014.08.02.178.02.293v2.214c0 .035.014.067.04.096a.123.123 0 0 0 .094.043h.806a.134.134 0 0 0 .096-.043.134.134 0 0 0 .044-.097zm2.904.015v-.515c0-.075-.046-.113-.14-.113H29.8c-.102 0-.164-.019-.186-.056-.023-.038-.034-.124-.034-.257v-1.939h.547a.128.128 0 0 0 .093-.04.13.13 0 0 0 .04-.094v-.544a.13.13 0 0 0-.04-.094.128.128 0 0 0-.093-.04h-.547v-.706a.107.107 0 0 0-.033-.084.124.124 0 0 0-.086-.03h-.02l-.808.14a.23.23 0 0 0-.092.047.108.108 0 0 0-.04.086v.547h-.533a.134.134 0 0 0-.097.043.134.134 0 0 0-.043.097v.44c0 .035.014.065.043.09a.235.235 0 0 0 .097.05l.533.086v1.932c0 .235.024.427.073.576.048.149.119.266.212.35a.723.723 0 0 0 .347.17c.14.029.3.043.48.043.098 0 .185-.004.26-.013.076-.009.165-.022.267-.04.084-.013.126-.057.126-.132zm3.558-2.386c0-.245-.037-.452-.11-.623a1.083 1.083 0 0 0-.31-.42 1.28 1.28 0 0 0-.49-.24 2.543 2.543 0 0 0-.649-.077c-.222 0-.439.016-.65.047a5.473 5.473 0 0 0-.502.093c-.085.023-.127.071-.127.147v.54c0 .044.01.075.033.093a.134.134 0 0 0 .087.026h.033l.2-.016c.08-.007.17-.012.27-.017a14.757 14.757 0 0 1 .636-.013c.155 0 .278.029.366.086.09.058.134.183.134.374v.24h-.36c-.573 0-.99.09-1.25.27-.259.179-.389.464-.389.855v.06c0 .218.032.4.097.546.064.147.15.265.256.354a.964.964 0 0 0 .363.19c.136.037.277.056.423.056.2 0 .372-.027.517-.08.144-.053.28-.126.41-.22v.107c0 .035.013.067.04.093.026.027.057.04.093.04h.746a.128.128 0 0 0 .093-.04.128.128 0 0 0 .04-.093v-2.378zm-1.06 1.612c-.08.04-.165.074-.256.103a.949.949 0 0 1-.29.043.65.65 0 0 1-.316-.06c-.069-.04-.103-.13-.103-.273v-.06c0-.08.009-.15.026-.213a.317.317 0 0 1 .094-.153.43.43 0 0 1 .18-.09c.075-.02.17-.03.286-.03h.38v.733zm4.338.706v-.593a.102.102 0 0 0-.037-.083.137.137 0 0 0-.09-.03h-.013a6.15 6.15 0 0 1-.813.047.612.612 0 0 1-.213-.037.397.397 0 0 1-.173-.127.67.67 0 0 1-.117-.24c-.029-.1-.043-.223-.043-.37v-.559c0-.147.014-.27.043-.37a.67.67 0 0 1 .117-.24.4.4 0 0 1 .173-.126.615.615 0 0 1 .213-.037 6.138 6.138 0 0 1 .813.047h.013c.036 0 .066-.01.09-.03a.102.102 0 0 0 .037-.083v-.593c0-.05-.011-.084-.034-.104a.265.265 0 0 0-.106-.05 3.6 3.6 0 0 0-.886-.1c-.471 0-.847.145-1.13.433-.282.29-.423.707-.423 1.253v.56c0 .546.141.963.423 1.252.283.289.659.433 1.13.433a3.599 3.599 0 0 0 .886-.1.264.264 0 0 0 .106-.05c.023-.02.034-.054.034-.103zm2.871.068v-.515c0-.075-.047-.113-.14-.113h-.326c-.103 0-.165-.019-.187-.056-.022-.038-.033-.124-.033-.257v-1.939h.546a.128.128 0 0 0 .093-.04.13.13 0 0 0 .04-.094v-.544a.13.13 0 0 0-.04-.094.128.128 0 0 0-.093-.04h-.546v-.706a.107.107 0 0 0-.033-.084.123.123 0 0 0-.086-.03h-.02l-.808.14a.23.23 0 0 0-.093.047.108.108 0 0 0-.04.086v.547h-.532a.134.134 0 0 0-.097.043.134.134 0 0 0-.043.097v.44c0 .035.014.065.043.09a.235.235 0 0 0 .097.05l.533.086v1.932c0 .235.024.427.072.576.049.149.12.266.212.35a.723.723 0 0 0 .348.17c.139.029.299.043.48.043.098 0 .184-.004.26-.013.075-.009.164-.022.266-.04.085-.013.127-.057.127-.132z" fill="#004C81"/></g></svg>
