<svg width="51" height="33" xmlns="http://www.w3.org/2000/svg"><defs><linearGradient x1="-57.527%" y1="50.124%" x2="232.391%" y2="50.124%" id="a"><stop stop-color="#007940" offset="0%"/><stop stop-color="#00873F" offset="22.85%"/><stop stop-color="#40A737" offset="74.33%"/><stop stop-color="#5CB531" offset="100%"/></linearGradient><linearGradient x1=".183%" y1="49.96%" x2="100.273%" y2="49.96%" id="b"><stop stop-color="#007940" offset="0%"/><stop stop-color="#00873F" offset="22.85%"/><stop stop-color="#40A737" offset="74.33%"/><stop stop-color="#5CB531" offset="100%"/></linearGradient><linearGradient x1="-62.802%" y1="49.858%" x2="253.671%" y2="49.858%" id="c"><stop stop-color="#007940" offset="0%"/><stop stop-color="#00873F" offset="22.85%"/><stop stop-color="#40A737" offset="74.33%"/><stop stop-color="#5CB531" offset="100%"/></linearGradient><linearGradient x1=".176%" y1="50.006%" x2="101.808%" y2="50.006%" id="d"><stop stop-color="#1F286F" offset="0%"/><stop stop-color="#004E94" offset="47.51%"/><stop stop-color="#0066B1" offset="82.61%"/><stop stop-color="#006FBC" offset="100%"/></linearGradient><linearGradient x1="-.576%" y1="49.914%" x2="98.133%" y2="49.914%" id="e"><stop stop-color="#6C2C2F" offset="0%"/><stop stop-color="#882730" offset="17.35%"/><stop stop-color="#BE1833" offset="57.31%"/><stop stop-color="#DC0436" offset="85.85%"/><stop stop-color="#E60039" offset="100%"/></linearGradient></defs><g fill="none" fill-rule="evenodd"><rect stroke="#D3D3D4" fill="#FFF" x=".5" y=".5" width="50" height="32" rx="4"/><g fill-rule="nonzero"><path d="M44.867 25.75a6.157 6.157 0 0 1-6.148 6.148H5.266V7.547a6.157 6.157 0 0 1 6.148-6.148h33.453V25.75z" fill="#FFF"/><path d="M2.179 16.097H4.72c.073 0 .242-.024.315-.024.484-.097.896-.533.896-1.138 0-.58-.412-1.016-.896-1.137-.073-.025-.218-.025-.315-.025H2.18v2.324z" fill="url(#a)" transform="translate(31.796 3.408)"/><path d="M4.43.048A4.406 4.406 0 0 0 .024 4.454v4.575h6.221c.145 0 .315 0 .436.024 1.404.073 2.445.799 2.445 2.058 0 .992-.702 1.84-2.01 2.009v.048c1.429.097 2.518.896 2.518 2.13 0 1.332-1.21 2.203-2.808 2.203H0v8.956h6.463c2.42 0 4.406-1.96 4.406-4.405V.048h-6.44z" fill="url(#b)" transform="translate(31.796 3.408)"/><path d="M5.616 11.401c0-.58-.412-.968-.896-1.04-.048 0-.17-.025-.242-.025h-2.3v2.13h2.3c.073 0 .218 0 .242-.024a1.03 1.03 0 0 0 .896-1.04z" fill="url(#c)" transform="translate(31.796 3.408)"/><path d="M6.874 2.456A4.406 4.406 0 0 0 2.47 6.862V17.73c1.234.605 2.517.993 3.8.993 1.525 0 2.348-.92 2.348-2.179v-5.132h3.776v5.108c0 1.985-1.234 3.607-5.422 3.607-2.542 0-4.527-.557-4.527-.557v9.27h6.463a4.406 4.406 0 0 0 4.406-4.405V2.456h-6.44z" fill="url(#d)" transform="translate(5 1)"/><path d="M19.05 2.456a4.406 4.406 0 0 0-4.406 4.406v5.76c1.114-.943 3.05-1.548 6.173-1.403 1.67.072 3.461.532 3.461.532v1.864c-.895-.46-1.96-.871-3.34-.968-2.372-.17-3.8.992-3.8 3.026 0 2.057 1.428 3.22 3.8 3.026 1.38-.097 2.445-.533 3.34-.969v1.864s-1.767.46-3.461.533c-3.123.145-5.06-.46-6.173-1.404v10.166h6.463c2.42 0 4.406-1.96 4.406-4.405V2.456H19.05z" fill="url(#e)" transform="translate(5 1)"/></g></g></svg>