<svg xmlns="http://www.w3.org/2000/svg" width="46" height="30"><rect y=".528" x=".468" width="45.08" height="29.084" rx="4.28" fill="#ffb3c7" fill-rule="evenodd"/><path d="M40.867 17.063a1.06 1.06 0 00-1.056 1.065 1.06 1.06 0 001.056 1.066 1.06 1.06 0 001.056-1.066 1.06 1.06 0 00-1.056-1.065zm-3.474-.824c0-.806-.682-1.459-1.524-1.459s-1.525.653-1.525 1.459.683 1.459 1.525 1.459c.842 0 1.524-.653 1.524-1.46zm.006-2.835h1.682v5.67h-1.682v-.363a2.93 2.93 0 01-1.668.52c-1.637 0-2.965-1.34-2.965-2.992s1.328-2.992 2.965-2.992a2.93 2.93 0 011.668.52v-.363zm-13.463.738v-.738h-1.723v5.67h1.727v-2.647c0-.893.959-1.373 1.625-1.373h.02v-1.65c-.684 0-1.312.296-1.65.739zm-4.29 2.097c0-.806-.683-1.459-1.525-1.459-.842 0-1.524.653-1.524 1.459s.682 1.459 1.524 1.459 1.524-.653 1.524-1.459zm.005-2.835h1.682v5.67h-1.682v-.363a2.93 2.93 0 01-1.668.52c-1.637 0-2.965-1.34-2.965-2.992s1.328-2.992 2.965-2.992a2.93 2.93 0 011.668.52v-.363zm10.126-.153c-.672 0-1.308.211-1.733.792v-.639h-1.676v5.67h1.696v-2.98c0-.862.573-1.284 1.263-1.284.74 0 1.164.446 1.164 1.273v2.99h1.68v-3.605c0-1.32-1.039-2.216-2.394-2.216zm-17.209 5.823h1.76v-8.197h-1.76zm-7.735.002h1.865v-8.2H4.833zm6.522-8.2a6.553 6.553 0 01-1.908 4.654l2.578 3.546H9.722L6.92 15.222l.723-.546a4.723 4.723 0 001.886-3.8h1.825z" fill="#0a0b09" fill-rule="evenodd"/></svg>
