<svg xmlns="http://www.w3.org/2000/svg" viewBox="0 0 46 30" xmlns:xlink="http://www.w3.org/1999/xlink">
  <defs>
    <rect id="a" width="46" height="30" rx="4"/>
    <mask id="b" width="46" height="30" x="0" y="0" fill="#fff">
      <use xlink:href="#a"/>
    </mask>
  </defs>
  <g fill="none" fill-rule="evenodd">
    <use fill="#FFF" stroke="#DADBD2" stroke-width="2" mask="url(#b)" xlink:href="#a"/>
    <path fill="#003087" d="M8.014 10.953H4.997c-.204 0-.38.15-.416.348l-1.22 7.53c-.02.15.1.29.25.29h1.45c.21 0 .39-.14.42-.34l.32-2.04c.04-.19.22-.34.42-.34h.96c1.99 0 3.14-.94 3.44-2.79.13-.81.01-1.44-.38-1.89-.43-.49-1.19-.75-2.2-.75m.36 2.75c-.17 1.06-1 1.06-1.8 1.06h-.46l.32-1.96c.02-.12.126-.2.25-.2h.2c.55 0 1.06 0 1.33.307.157.18.208.448.15.817m8.67-.03H15.6c-.126 0-.234.088-.253.21l-.062.395-.104-.144c-.31-.44-1-.584-1.7-.584-1.59 0-2.96 1.17-3.22 2.82-.14.828.06 1.61.54 2.166.44.5 1.07.71 1.82.71 1.29 0 2-.81 2-.81l-.06.39c-.02.15.09.28.25.28h1.3c.21 0 .39-.14.42-.34l.78-4.81c.03-.15-.09-.28-.24-.28m-2.03 2.72c-.14.8-.8 1.34-1.63 1.34-.42 0-.75-.134-.97-.38-.21-.25-.29-.6-.22-.985.13-.79.79-1.35 1.62-1.35.41 0 .74.13.96.38.22.25.31.61.25.99m9.71-2.73c.21 0 .33.23.21.38l-4.83 6.78c-.08.11-.207.18-.342.18h-1.46c-.2 0-.32-.22-.202-.38l1.507-2.065-1.6-4.57c-.055-.16.065-.328.236-.328h1.43c.185 0 .35.12.4.29l.85 2.76 2-2.87c.08-.11.21-.18.35-.18h1.45"/>
    <path fill="#009CDE" d="M29.54 10.953h-3.02c-.204 0-.38.15-.41.348l-1.22 7.53c-.03.15.09.28.246.28h1.548c.145 0 .27-.1.29-.24l.346-2.13c.033-.19.21-.34.414-.34h.957c1.99 0 3.14-.94 3.44-2.79.14-.81.01-1.44-.39-1.89-.42-.49-1.18-.75-2.19-.75m.35 2.75c-.17 1.06-.99 1.06-1.79 1.06h-.45l.32-1.96c.02-.11.13-.2.25-.2h.21c.55 0 1.06 0 1.32.307.16.18.21.45.15.82m8.67-.03h-1.45c-.12 0-.23.087-.25.21l-.06.394-.1-.145c-.31-.44-1.01-.584-1.7-.584-1.6 0-2.96 1.17-3.23 2.82-.14.83.06 1.61.54 2.168.44.5 1.07.71 1.82.71 1.288 0 2-.803 2-.803l-.06.39c-.024.15.09.28.25.28h1.3c.21 0 .384-.15.414-.34l.78-4.82c.03-.15-.1-.28-.25-.28m-2.01 2.73c-.14.807-.8 1.347-1.63 1.347-.42 0-.757-.133-.974-.38-.218-.25-.3-.6-.228-.99.13-.79.79-1.35 1.615-1.35.41 0 .744.13.964.38.226.25.31.61.25.99m3.716-5.24c.023-.11.124-.2.25-.2h1.394c.15 0 .27.136.25.286L40.95 18.8c-.038.2-.21.34-.42.34h-1.24c-.156 0-.27-.133-.25-.28l1.235-7.666"/>
  </g>
</svg>
