<?xml version="1.0" encoding="iso-8859-1"?>
<!-- Generator: Adobe Illustrator 16.0.0, SVG Export Plug-In . SVG Version: 6.00 Build 0)  -->
<!DOCTYPE svg PUBLIC "-//W3C//DTD SVG 1.1//EN" "http://www.w3.org/Graphics/SVG/1.1/DTD/svg11.dtd">
<svg version="1.1" id="Capa_1" xmlns="http://www.w3.org/2000/svg" xmlns:xlink="http://www.w3.org/1999/xlink" x="0px" y="0px"
	 width="53.322px" height="53.322px" viewBox="0 0 53.322 53.322" style="enable-background:new 0 0 53.322 53.322;"
	 xml:space="preserve">
<g>
	<path d="M27.588,2.462l3.811,15.803c0.512,1.576,2.271,2.854,3.927,2.854l16.565-1c1.656,0,1.914,0.789,0.572,1.764l-13.592,8.147
		c-1.341,0.975-2.012,3.041-1.5,4.617L43.18,50.45c0.512,1.576-0.158,2.064-1.5,1.09L29.088,40.393
		c-1.341-0.976-3.514-0.976-4.854,0L11.642,51.54c-1.341,0.976-2.012,0.486-1.5-1.09l5.809-15.802
		c0.512-1.576-0.159-3.644-1.5-4.617L0.859,21.882c-1.341-0.975-1.084-1.764,0.573-1.764l16.565,1c1.657,0,3.415-1.277,3.927-2.854
		l3.81-15.803C26.246,0.887,27.076,0.887,27.588,2.462z"/>
</g>
<g>
</g>
<g>
</g>
<g>
</g>
<g>
</g>
<g>
</g>
<g>
</g>
<g>
</g>
<g>
</g>
<g>
</g>
<g>
</g>
<g>
</g>
<g>
</g>
<g>
</g>
<g>
</g>
<g>
</g>
</svg>
