<?xml version="1.0" encoding="iso-8859-1"?>
<!-- Generator: Adobe Illustrator 16.0.0, SVG Export Plug-In . SVG Version: 6.00 Build 0)  -->
<!DOCTYPE svg PUBLIC "-//W3C//DTD SVG 1.1//EN" "http://www.w3.org/Graphics/SVG/1.1/DTD/svg11.dtd">
<svg version="1.1" id="Capa_1" xmlns="http://www.w3.org/2000/svg" xmlns:xlink="http://www.w3.org/1999/xlink" x="0px" y="0px"
	 width="466.903px" height="466.903px" viewBox="0 0 466.903 466.903" style="enable-background:new 0 0 466.903 466.903;"
	 xml:space="preserve">
<g>
	<g>
		<path d="M450.048,146.347c-6.479-15.717-19.411-26.817-34.468-31.494c1.84-16.054-3.357-32.769-15.673-45.086
			c-11.874-11.878-27.844-17.138-43.36-15.849c-4.508-15.34-15.625-28.593-31.522-35.217c-15.701-6.538-32.688-5.235-46.65,2.106
			c-10.051-12.658-25.535-20.802-42.96-20.802c-16.799,0-31.807,7.565-41.873,19.46c-14.03-7.662-31.266-9.169-47.197-2.607
			c-15.715,6.474-26.818,19.412-31.495,34.468c-16.052-1.843-32.765,3.354-45.085,15.663c-11.874,11.88-17.138,27.843-15.85,43.364
			c-15.34,4.508-28.593,15.625-35.215,31.528c-6.54,15.693-5.238,32.691,2.104,46.646C8.137,198.578,0,214.069,0,231.483
			c0,16.804,7.566,31.815,19.46,41.874c-7.663,14.03-9.169,31.27-2.607,47.191c6.476,15.725,19.412,26.817,34.468,31.502
			c-1.843,16.054,3.354,32.772,15.663,45.088c12.688,12.68,30.021,17.801,46.516,15.452c4.12,16.135,15.455,30.225,32.011,37.121
			c15.084,6.279,31.34,5.277,44.968-1.318c10.05,11.333,24.673,18.506,41.004,18.506c17.933,0,33.811-8.644,43.817-21.952
			c14.334,8.491,32.296,10.439,48.887,3.61c16.102-6.632,27.33-20.064,31.795-35.598c15.701,1.475,31.906-3.803,43.925-15.813
			c11.425-11.417,16.699-26.609,15.941-41.561c14.114-4.998,26.148-15.661,32.36-30.557c6.973-16.743,4.981-34.945-3.711-49.372
			c13.569-9.99,22.405-26.02,22.405-44.157c0-16.146-7.013-30.613-18.113-40.654C455.214,177.327,456.195,161.281,450.048,146.347z
			 M358.006,240.408c1.158,6.98,3.587,13.529,7.105,19.372c-6.031,4.424-11.217,10.143-15.112,16.936
			c17.881,8.6,30.316,17.071,28.966,20.177c-1.351,3.098-15.918-0.16-34.3-7.298c-1.526,5.688-2.124,11.445-1.831,17.112
			c-6.052,2.136-11.786,5.386-16.936,9.698c13.669,14.711,22.253,27.314,19.849,29.734c-2.4,2.393-14.792-6.022-29.294-19.439
			c-3.644,5.133-6.38,10.716-8.052,16.551c-8.047-0.758-16.358,0.309-24.409,3.334c6.825,19.22,9.759,34.5,6.549,35.758
			c-3.13,1.242-11.057-11.192-18.959-29.102c-4.661,3.334-8.765,7.249-12.107,11.714c-6.103-3.635-12.972-6.147-20.305-7.193
			c-0.714,20.27-3.591,35.441-7.021,35.441c-3.444,0-6.328-15.248-7.025-35.61c-6.209,0.738-12.099,2.533-17.506,5.154
			c-4.861-5.49-10.906-10.043-17.923-13.316c-8.833,18.65-17.679,31.723-20.865,30.344c-3.11-1.358,0.194-16.038,7.402-34.552
			c-5.815-1.022-11.658-1.198-17.334-0.385c-1.693-6.685-4.676-13.093-8.908-18.875c-14.875,13.878-27.684,22.618-30.114,20.177
			c-2.449-2.452,6.398-15.384,20.408-30.364c-5.53-4.483-11.71-7.766-18.21-9.773c0.748-6.396,0.329-12.973-1.274-19.46
			c-19.199,6.809-34.459,9.737-35.724,6.531c-1.264-3.209,11.917-11.513,30.639-19.64c-3.32-6.088-7.648-11.337-12.712-15.617
			c2.703-4.929,4.568-10.355,5.655-16.054c-20.001-0.741-34.909-3.595-34.909-6.997c0-3.458,15.32-6.348,35.748-7.041
			c-0.541-7.811-2.623-15.19-6.083-21.76c4.921-3.893,9.177-8.712,12.591-14.263c-18.095-8.666-30.71-17.25-29.354-20.381
			c1.369-3.138,16.336,0.254,35.115,7.618c2.076-6.809,2.795-13.758,2.225-20.524c5.319-1.553,10.407-4.029,15.156-7.221
			c-13.321-14.437-21.656-26.729-19.27-29.11c2.417-2.419,15.058,6.195,29.785,19.887c5.244-5.961,9.057-12.733,11.289-19.925
			c6.673,0.777,13.558,0.345,20.33-1.445c-6.554-18.715-9.341-33.484-6.193-34.72c3.147-1.242,11.163,11.373,19.123,29.469
			c5.797-3.267,10.794-7.498,14.916-12.373c5.315,2.913,11.205,4.891,17.406,5.911c0.801-19.47,3.61-33.867,6.952-33.867
			c3.379,0,6.2,14.643,6.981,34.368c7.346-0.673,14.29-2.729,20.498-6.009c4.28,5.4,9.622,10.047,15.869,13.604
			c8.528-17.641,16.892-29.872,19.974-28.531c3.073,1.339-0.116,15.663-7.121,33.813c6.255,1.687,12.623,2.224,18.834,1.695
			c1.756,6.038,4.637,11.802,8.508,17.062c14.271-13.128,26.397-21.31,28.75-18.951c2.372,2.368-5.911,14.607-19.172,28.998
			c5.551,4.515,11.754,7.818,18.282,9.836c-0.773,6.65-0.345,13.511,1.435,20.261c18.49-6.436,33.029-9.161,34.255-6.037
			c1.234,3.116-11.173,11.033-29.025,18.929c2.974,5.282,6.732,9.917,11.068,13.826c-2.737,5.723-4.492,11.978-5.105,18.581
			c19.732,0.777,34.392,3.603,34.392,6.981C391.868,236.801,377.47,239.61,358.006,240.408z"/>
		<path d="M336.065,233.359c0-2.36,0.244-4.661,0.597-6.921c0.697-4.488,2-8.778,3.896-12.742c-3.635-3.28-6.801-7.175-9.294-11.618
			c-0.865-1.553-1.654-3.164-2.344-4.853c-1.13-2.729-1.871-5.508-2.44-8.303c-0.982-4.815-1.251-9.656-0.689-14.375
			c-5.273-1.633-10.303-4.254-14.827-7.842c-1.363-1.076-2.682-2.222-3.939-3.477c-2.108-2.112-3.896-4.428-5.507-6.816
			c-2.665-3.963-4.736-8.209-6.03-12.66c-4.821,0.405-9.746,0-14.607-1.188c-2.269-0.549-4.536-1.216-6.761-2.144
			c-2.16-0.9-4.176-1.986-6.115-3.162c-4.741-2.875-8.824-6.478-12.131-10.66c-4.721,2.487-9.935,4.174-15.44,4.879
			c-1.907,0.246-3.847,0.38-5.826,0.38c-2.777,0-5.477-0.331-8.117-0.81c-4.916-0.89-9.576-2.472-13.816-4.799
			c-2.974,3.527-6.554,6.58-10.589,9.123c-2.166,1.369-4.429,2.629-6.879,3.633c-1.946,0.801-3.917,1.438-5.895,1.956
			c-5.588,1.46-11.273,1.825-16.781,1.18c-1.645,5.298-4.282,10.347-7.884,14.877c-1.066,1.341-2.188,2.645-3.431,3.883
			c-2.128,2.126-4.444,3.909-6.847,5.534c-3.955,2.661-8.187,4.719-12.623,6.015c0.411,4.833,0,9.774-1.192,14.657
			c-0.547,2.25-1.214,4.496-2.134,6.712c-0.912,2.18-2.01,4.224-3.204,6.175c-2.865,4.703-6.46,8.778-10.624,12.066
			c2.531,4.789,4.232,10.081,4.927,15.677c0.227,1.823,0.345,3.695,0.345,5.591c0,2.89-0.356,5.679-0.868,8.416
			c-0.899,4.809-2.464,9.377-4.741,13.517c3.669,3.098,6.831,6.833,9.43,11.064c1.242,2.023,2.396,4.132,3.328,6.399
			c0.888,2.152,1.549,4.341,2.088,6.532c1.318,5.391,1.665,10.841,1.048,16.138c4.795,1.479,9.379,3.823,13.573,6.913
			c1.805,1.335,3.552,2.77,5.186,4.396c1.759,1.763,3.282,3.646,4.688,5.595c3.422,4.752,5.857,9.99,7.244,15.464
			c4.218-0.604,8.542-0.593,12.862,0.013c3.745,0.528,7.49,1.482,11.146,2.997c0.832,0.349,1.593,0.786,2.395,1.166
			c5.532,2.701,10.331,6.356,14.21,10.736c4.236-2.056,8.846-3.45,13.681-4.128c2.036-0.28,4.098-0.473,6.217-0.473
			c2.703,0,5.312,0.305,7.873,0.766c5.55,0.981,10.771,2.897,15.44,5.674c2.697-3.59,5.963-6.764,9.682-9.478
			c2.874-2.1,5.987-3.955,9.43-5.365c1.05-0.429,2.108-0.737,3.166-1.091c6.127-2.007,12.403-2.721,18.498-2.144
			c1.402-4.921,3.703-9.614,6.793-13.938c1.442-2.016,3.006-3.979,4.825-5.795c1.578-1.595,3.277-2.978,5.021-4.264
			c3.747-2.785,7.795-4.97,12.059-6.473c-0.252-4.829,0.261-9.758,1.611-14.61c0.488-1.764,1.07-3.527,1.791-5.258
			c1.122-2.701,2.553-5.154,4.096-7.498c3.042-4.593,6.761-8.572,11.053-11.722c-2.99-4.953-5.042-10.52-5.987-16.463
			C336.302,238.152,336.065,235.792,336.065,233.359z"/>
	</g>
</g>
<g>
</g>
<g>
</g>
<g>
</g>
<g>
</g>
<g>
</g>
<g>
</g>
<g>
</g>
<g>
</g>
<g>
</g>
<g>
</g>
<g>
</g>
<g>
</g>
<g>
</g>
<g>
</g>
<g>
</g>
</svg>
