<?xml version="1.0" encoding="iso-8859-1"?>
<!-- Generator: Adobe Illustrator 16.0.0, SVG Export Plug-In . SVG Version: 6.00 Build 0)  -->
<!DOCTYPE svg PUBLIC "-//W3C//DTD SVG 1.1//EN" "http://www.w3.org/Graphics/SVG/1.1/DTD/svg11.dtd">
<svg version="1.1" id="Capa_1" xmlns="http://www.w3.org/2000/svg" xmlns:xlink="http://www.w3.org/1999/xlink" x="0px" y="0px"
	 width="31.277px" height="31.277px" viewBox="0 0 31.277 31.277" style="enable-background:new 0 0 31.277 31.277;"
	 xml:space="preserve">
<g>
	<path d="M30.3,3.442c1.728-2.105,0.64-3.104,0.64-3.104s-0.998-1.088-3.104,0.639C25.73,2.705,14.108,11.146,12.187,11.422
		C10.268,11.701,3.241,9.965,0,13.753c0,0,2.098,4.289,4.791,6.982l-0.547,0.548l0.729,1.095l-1.738,0.725
		c0,0,0.371,1.558,1.876,3.062c1.504,1.505,3.062,1.876,3.062,1.876l0.725-1.739l1.096,0.73l0.548-0.548
		c2.693,2.693,6.981,4.792,6.981,4.792c3.789-3.24,2.055-10.268,2.33-12.188C20.13,17.169,28.574,5.547,30.3,3.442z"/>
</g>
<g>
</g>
<g>
</g>
<g>
</g>
<g>
</g>
<g>
</g>
<g>
</g>
<g>
</g>
<g>
</g>
<g>
</g>
<g>
</g>
<g>
</g>
<g>
</g>
<g>
</g>
<g>
</g>
<g>
</g>
</svg>
