<?xml version="1.0" encoding="iso-8859-1"?>
<!-- Generator: Adobe Illustrator 16.0.0, SVG Export Plug-In . SVG Version: 6.00 Build 0)  -->
<!DOCTYPE svg PUBLIC "-//W3C//DTD SVG 1.1//EN" "http://www.w3.org/Graphics/SVG/1.1/DTD/svg11.dtd">
<svg version="1.1" id="Capa_1" xmlns="http://www.w3.org/2000/svg" xmlns:xlink="http://www.w3.org/1999/xlink" x="0px" y="0px"
	 width="588.896px" height="588.896px" viewBox="0 0 588.896 588.896" style="enable-background:new 0 0 588.896 588.896;"
	 xml:space="preserve">
<g>
	<g>
		<path d="M364.178,276.777c16.224,16.224,37.797,25.159,60.737,25.159c22.944,0,44.514-8.935,60.738-25.159l52.065-52.066
			c16.225-16.224,25.16-37.791,25.16-60.732c0-22.944-8.938-44.504-25.166-60.713l-78.088-78.131C443.395,8.923,421.825,0,398.884,0
			s-44.511,8.926-60.734,25.128l-52.076,52.109c-30.511,30.471-33.623,79.153-7.234,113.226c3.412,4.403,8.954,9.936,12.999,13.975
			l0.888,0.887l10.729,10.729L32.357,487.151c-4.088,4.089-6.34,9.523-6.34,15.304c0,5.783,2.252,11.218,6.34,15.306l19.382,19.382
			l45.417,45.417c4.088,4.088,9.522,6.337,15.306,6.337c5.78,0,11.218-2.249,15.306-6.337l9.963-9.964
			c4.088-4.088,6.34-9.522,6.34-15.306c0-5.78-2.252-11.218-6.34-15.306l-10.728-10.729l5.991-5.992l10.729,10.729
			c4.088,4.088,9.523,6.341,15.306,6.341s11.218-2.252,15.306-6.341l10-10c4.088-4.088,6.34-9.522,6.34-15.306
			c0-5.78-2.252-11.218-6.34-15.304l-36.76-36.76l199.228-199.227L364.178,276.777z M329.422,155.334
			c-4.624-4.636-7.176-10.82-7.176-17.405c0-6.573,2.546-12.732,7.163-17.341l52.078-52.078c4.637-4.648,10.806-7.204,17.378-7.204
			c6.573,0,12.742,2.555,17.369,7.191l78.149,78.112c9.568,9.569,9.562,25.166-0.013,34.765l-52.057,52.057
			c-4.646,4.633-10.832,7.188-17.414,7.188c-4.386,0-8.682-1.16-12.424-3.354c-2.778-1.628-7.944-6.815-10.72-9.599l-0.881-0.885
			L329.422,155.334z"/>
	</g>
</g>
<g>
</g>
<g>
</g>
<g>
</g>
<g>
</g>
<g>
</g>
<g>
</g>
<g>
</g>
<g>
</g>
<g>
</g>
<g>
</g>
<g>
</g>
<g>
</g>
<g>
</g>
<g>
</g>
<g>
</g>
</svg>
