<?xml version="1.0" encoding="iso-8859-1"?>
<!-- Generator: Adobe Illustrator 16.0.0, SVG Export Plug-In . SVG Version: 6.00 Build 0)  -->
<!DOCTYPE svg PUBLIC "-//W3C//DTD SVG 1.1//EN" "http://www.w3.org/Graphics/SVG/1.1/DTD/svg11.dtd">
<svg version="1.1" id="Capa_1" xmlns="http://www.w3.org/2000/svg" xmlns:xlink="http://www.w3.org/1999/xlink" x="0px" y="0px"
	 width="449.104px" height="449.104px" viewBox="0 0 449.104 449.104" style="enable-background:new 0 0 449.104 449.104;"
	 xml:space="preserve">
<g>
	<g id="Layer_8_8_">
		<path d="M175.177,253.282c0-27.268,22.099-49.376,49.371-49.376c27.277,0,49.372,22.104,49.372,49.376
			c0,27.267-22.095,49.374-49.372,49.374S175.177,280.549,175.177,253.282z M373.783,449.104H83.547
			c0-29.544,21-55.896,53.819-73.155c-65.675-32.253-110.89-99.771-110.89-177.87C26.476,88.68,115.161,0,224.548,0
			c109.393,0,198.079,88.68,198.079,198.073c0,76.458-43.348,142.75-106.792,175.762
			C351.031,391.025,373.783,418.334,373.783,449.104z M131.399,248.09c0,51.442,41.7,93.154,93.149,93.154
			c51.451,0,93.149-41.707,93.149-93.154c0-51.451-41.698-93.155-93.149-93.155C173.099,154.935,131.399,196.645,131.399,248.09z"/>
	</g>
</g>
<g>
</g>
<g>
</g>
<g>
</g>
<g>
</g>
<g>
</g>
<g>
</g>
<g>
</g>
<g>
</g>
<g>
</g>
<g>
</g>
<g>
</g>
<g>
</g>
<g>
</g>
<g>
</g>
<g>
</g>
</svg>
